<svg width="103" height="20" viewBox="0 0 103 20" fill="none" xmlns="http://www.w3.org/2000/svg">
<path d="M7.992 19.6C6.616 19.6 5.376 19.32 4.272 18.76C3.184 18.184 2.32 17.304 1.68 16.12C1.04 14.936 0.72 13.44 0.72 11.632C0.72 10.752 0.872 9.848 1.176 8.92C1.48 7.992 1.92 7.096 2.496 6.232C3.088 5.352 3.816 4.568 4.68 3.88C5.56 3.176 6.576 2.624 7.728 2.224C8.88 1.808 10.16 1.6 11.568 1.6C12.432 1.6 13.208 1.72 13.896 1.96C14.6 2.2 15.152 2.56 15.552 3.04C15.952 3.504 16.152 4.088 16.152 4.792C16.152 5.48 15.992 6.056 15.672 6.52C15.368 6.984 14.96 7.336 14.448 7.576C13.952 7.8 13.408 7.912 12.816 7.912C12.112 7.912 11.424 7.736 10.752 7.384C10.08 7.032 9.536 6.512 9.12 5.824C8.56 6.096 8.032 6.56 7.536 7.216C7.056 7.856 6.672 8.608 6.384 9.472C6.096 10.336 5.952 11.232 5.952 12.16C5.952 12.816 6.032 13.432 6.192 14.008C6.368 14.568 6.632 15.024 6.984 15.376C7.336 15.728 7.784 15.904 8.328 15.904C8.776 15.904 9.208 15.736 9.624 15.4C10.04 15.048 10.384 14.584 10.656 14.008C10.928 13.432 11.064 12.784 11.064 12.064C12.04 12.064 12.856 12.112 13.512 12.208C14.184 12.288 14.696 12.472 15.048 12.76C15.4 13.048 15.576 13.496 15.576 14.104C15.576 14.712 15.4 15.336 15.048 15.976C14.696 16.616 14.184 17.216 13.512 17.776C12.856 18.32 12.056 18.76 11.112 19.096C10.184 19.432 9.144 19.6 7.992 19.6ZM19.5508 19.624C18.4788 19.624 17.7188 19.32 17.2708 18.712C16.8388 18.088 16.6228 17.152 16.6228 15.904C16.6228 15.104 16.7508 13.904 17.0068 12.304C17.2788 10.688 17.6548 8.552 18.1348 5.896L16.8628 3.328C17.6148 2.848 18.4148 2.44 19.2628 2.104C20.1108 1.752 20.9588 1.576 21.8068 1.576C22.5588 1.576 23.0548 1.8 23.2948 2.248C23.5348 2.696 23.6548 3.224 23.6548 3.832C23.6548 4.088 23.6068 4.504 23.5108 5.08C23.4308 5.64 23.3188 6.304 23.1748 7.072C23.0308 7.824 22.8788 8.616 22.7188 9.448C22.5748 10.28 22.4308 11.104 22.2868 11.92C22.1428 12.72 22.0228 13.456 21.9268 14.128C21.8468 14.784 21.8068 15.32 21.8068 15.736H24.3988C25.6148 15.56 26.8388 15.248 28.0708 14.8C28.1348 14.976 28.1748 15.16 28.1908 15.352C28.2068 15.544 28.2148 15.752 28.2148 15.976C28.2148 16.536 28.1028 17.096 27.8788 17.656C27.6548 18.216 27.3108 18.68 26.8468 19.048C26.3828 19.416 25.7988 19.6 25.0948 19.6C24.4068 19.6 23.8068 19.536 23.2948 19.408C22.7828 19.296 22.2468 19.184 21.6868 19.072C21.3348 19.264 20.9828 19.4 20.6308 19.48C20.2788 19.576 19.9188 19.624 19.5508 19.624ZM31.6427 19.624C30.5707 19.624 29.8107 19.32 29.3627 18.712C28.9307 18.088 28.7147 17.152 28.7147 15.904C28.7147 15.104 28.8427 13.904 29.0987 12.304C29.3707 10.688 29.7467 8.552 30.2267 5.896L28.9547 3.328C29.7067 2.848 30.5067 2.44 31.3547 2.104C32.2027 1.752 33.0507 1.576 33.8987 1.576C34.6507 1.576 35.1467 1.8 35.3867 2.248C35.6267 2.696 35.7467 3.224 35.7467 3.832C35.7467 4.088 35.6987 4.504 35.6027 5.08C35.5227 5.64 35.4107 6.296 35.2667 7.048C35.1227 7.784 34.9707 8.56 34.8107 9.376C34.6667 10.176 34.5227 10.96 34.3787 11.728C34.2347 12.48 34.1147 13.152 34.0187 13.744C33.9387 14.32 33.8987 14.76 33.8987 15.064C33.8987 15.88 33.9547 16.568 34.0667 17.128C34.1947 17.688 34.3787 18.16 34.6187 18.544C33.6587 19.264 32.6667 19.624 31.6427 19.624ZM38.3554 8.296C37.8114 8.296 37.4354 8.184 37.2274 7.96C37.0354 7.736 36.9394 7.448 36.9394 7.096C36.9394 6.584 37.0434 6.04 37.2514 5.464C37.4594 4.888 37.6674 4.296 37.8754 3.688C38.0834 3.064 38.1874 2.44 38.1874 1.816C38.1874 1.448 38.1314 1.104 38.0194 0.783998C38.3874 0.607999 38.7634 0.479999 39.1474 0.399999C39.5474 0.319999 39.9074 0.279999 40.2274 0.279999C40.7714 0.279999 41.1394 0.391999 41.3314 0.615999C41.5394 0.839999 41.6434 1.128 41.6434 1.48C41.6434 2.008 41.5394 2.56 41.3314 3.136C41.1234 3.712 40.9154 4.304 40.7074 4.912C40.4994 5.52 40.3954 6.136 40.3954 6.76C40.3954 7.128 40.4514 7.472 40.5634 7.792C40.2114 7.952 39.8354 8.08 39.4354 8.176C39.0354 8.256 38.6754 8.296 38.3554 8.296ZM45.2946 19.624C44.2226 19.624 43.4626 19.32 43.0146 18.712C42.5826 18.088 42.3666 17.152 42.3666 15.904C42.3666 15.104 42.4946 13.904 42.7506 12.304C43.0226 10.688 43.3986 8.552 43.8786 5.896L42.6066 3.328C43.3586 2.848 44.1586 2.44 45.0066 2.104C45.8546 1.752 46.7026 1.576 47.5506 1.576C48.3186 1.576 48.9906 1.696 49.5666 1.936C50.1586 2.16 50.6706 2.6 51.1026 3.256C51.5346 3.896 51.8946 4.84 52.1826 6.088C52.4866 7.32 52.7346 8.944 52.9266 10.96H53.2146C53.5986 9.856 54.0786 8.752 54.6546 7.648C55.2306 6.544 55.9186 5.536 56.7186 4.624C57.5186 3.712 58.4466 2.984 59.5026 2.44C60.5746 1.88 61.7906 1.6 63.1506 1.6C63.9026 1.6 64.3986 1.824 64.6386 2.272C64.8786 2.704 64.9986 3.224 64.9986 3.832C64.9986 4.088 64.9506 4.504 64.8546 5.08C64.7746 5.64 64.6626 6.296 64.5186 7.048C64.3746 7.784 64.2226 8.56 64.0626 9.376C63.9186 10.176 63.7746 10.96 63.6306 11.728C63.4866 12.48 63.3666 13.152 63.2706 13.744C63.1906 14.32 63.1506 14.76 63.1506 15.064C63.1506 15.88 63.2066 16.568 63.3186 17.128C63.4466 17.688 63.6306 18.16 63.8706 18.544C62.9106 19.264 61.9186 19.624 60.8946 19.624C59.8226 19.624 59.0626 19.32 58.6146 18.712C58.1826 18.088 57.9666 17.152 57.9666 15.904C57.9666 15.216 58.0626 14.232 58.2546 12.952C58.4626 11.672 58.7426 10.024 59.0946 8.008H58.7106C58.0226 8.92 57.4226 9.944 56.9106 11.08C56.3986 12.2 55.9906 13.32 55.6866 14.44C55.3986 15.544 55.2066 16.528 55.1106 17.392C54.7106 17.76 54.2706 18.04 53.7906 18.232C53.3266 18.408 52.8626 18.496 52.3986 18.496C52.0146 18.496 51.6546 18.352 51.3186 18.064C50.9826 17.76 50.6706 17.232 50.3826 16.48C50.0946 15.728 49.8386 14.672 49.6146 13.312C49.4066 11.936 49.2386 10.168 49.1106 8.008H48.7266C48.5186 8.92 48.3266 9.856 48.1506 10.816C47.9746 11.76 47.8306 12.616 47.7186 13.384C47.6066 14.152 47.5506 14.712 47.5506 15.064C47.5506 15.88 47.6066 16.568 47.7186 17.128C47.8466 17.688 48.0306 18.16 48.2706 18.544C47.3106 19.264 46.3186 19.624 45.2946 19.624ZM73.4978 19.6C71.7698 19.6 70.2818 19.264 69.0338 18.592C67.8018 17.92 66.8498 16.984 66.1777 15.784C65.5218 14.584 65.1938 13.208 65.1938 11.656C65.1938 9.64 65.5698 7.88 66.3218 6.376C67.0898 4.872 68.1778 3.704 69.5858 2.872C71.0098 2.024 72.7138 1.6 74.6978 1.6C75.6578 1.6 76.3378 1.8 76.7378 2.2C77.1378 2.584 77.3378 3.152 77.3378 3.904C77.3378 4.016 77.3298 4.12 77.3138 4.216C77.3138 4.312 77.3058 4.424 77.2898 4.552C77.8978 4.072 78.5538 3.832 79.2578 3.832C79.8498 3.832 80.4178 4.016 80.9618 4.384C81.5058 4.736 81.9458 5.288 82.2818 6.04C82.6338 6.792 82.8098 7.744 82.8098 8.896C82.8098 10.608 82.5458 12.128 82.0178 13.456C81.5058 14.784 80.8018 15.904 79.9058 16.816C79.0258 17.728 78.0338 18.424 76.9297 18.904C75.8258 19.368 74.6818 19.6 73.4978 19.6ZM73.6898 16.096C74.4738 16.096 75.1858 15.792 75.8258 15.184C76.4818 14.56 76.9298 13.76 77.1698 12.784C76.6098 12.096 76.2098 11.408 75.9698 10.72C75.7458 10.016 75.6338 9.32 75.6338 8.632C75.6338 7.912 75.7218 7.272 75.8978 6.712C76.0738 6.152 76.3058 5.672 76.5938 5.272C76.3058 5.224 76.0178 5.2 75.7298 5.2C74.8338 5.2 74.0498 5.392 73.3778 5.776C72.7218 6.16 72.1698 6.672 71.7218 7.312C71.2898 7.936 70.9618 8.624 70.7378 9.376C70.5298 10.112 70.4258 10.84 70.4258 11.56C70.4258 12.376 70.5458 13.128 70.7858 13.816C71.0418 14.504 71.4098 15.056 71.8898 15.472C72.3858 15.888 72.9858 16.096 73.6898 16.096ZM86.2277 19.624C85.1557 19.624 84.3957 19.32 83.9477 18.712C83.5157 18.088 83.2997 17.152 83.2997 15.904C83.2997 15.104 83.4277 13.904 83.6837 12.304C83.9557 10.688 84.3317 8.552 84.8117 5.896L83.5397 3.328C84.2917 2.848 85.0917 2.44 85.9397 2.104C86.7877 1.768 87.6357 1.6 88.4837 1.6C89.6357 1.6 90.5397 1.776 91.1957 2.128C91.8517 2.48 92.3397 2.976 92.6597 3.616C92.9957 4.256 93.2437 5.008 93.4037 5.872C93.5797 6.736 93.7397 7.68 93.8837 8.704C94.0277 9.712 94.2437 10.768 94.5317 11.872C94.8197 12.976 95.2597 14.096 95.8517 15.232L96.4277 14.848C95.9797 13.968 95.6037 12.944 95.2997 11.776C95.0117 10.608 94.8677 9.44 94.8677 8.272C94.8677 7.104 95.0597 6.016 95.4437 5.008C95.8437 4 96.4357 3.184 97.2197 2.56C98.0037 1.92 98.9797 1.6 100.148 1.6C100.516 1.6 100.9 1.64 101.3 1.72C101.716 1.784 102.076 1.896 102.38 2.056C102.236 2.92 102.068 3.872 101.876 4.912C101.684 5.936 101.484 6.976 101.276 8.032C101.084 9.088 100.9 10.088 100.724 11.032C100.564 11.976 100.428 12.8 100.316 13.504C100.22 14.192 100.172 14.68 100.172 14.968C100.172 15.8 100.236 16.488 100.364 17.032C100.492 17.56 100.684 18.008 100.94 18.376C100.476 18.68 100.044 18.92 99.6437 19.096C99.2437 19.272 98.8117 19.4 98.3477 19.48C97.8997 19.56 97.3717 19.6 96.7637 19.6C95.5157 19.6 94.4677 19.304 93.6197 18.712C92.7877 18.12 92.1157 17.304 91.6037 16.264C91.0917 15.224 90.7077 14.032 90.4517 12.688C90.2117 11.344 90.0517 9.92 89.9717 8.416H89.5877C89.3957 9.312 89.2117 10.208 89.0357 11.104C88.8757 12 88.7397 12.8 88.6277 13.504C88.5317 14.208 88.4837 14.728 88.4837 15.064C88.4837 15.88 88.5397 16.568 88.6517 17.128C88.7797 17.688 88.9637 18.16 89.2037 18.544C88.2437 19.264 87.2517 19.624 86.2277 19.624Z" fill="#6C757D"/>
</svg>
