<?xml version="1.0" encoding="utf-8"?>
<svg viewBox="1077.1319580078125 223.3270721435547 124.12158203125 207.93028259277344" width="124.12158203125" height="207.93028259277344" xmlns="http://www.w3.org/2000/svg"><g transform="matrix(3.103490114212036, 0, 0, 3.103490114212036, -2170.146484375, -1149.38818359375)"><g transform="matrix(0.2848590314388275, 0, 0, 0.2848590314388275, 824.5968428807412, 334.2663541625175)"><g transform="matrix(1, 0, 0, 1, 0, -5.684341886080802e-14)"><path class="st1" d="M910.5,431.5c-6.8-30.4-33.8-52.2-65.2-52.2c-36.9,0-66.9,30-66.9,66.9v101.4c0,36.9,30,66.9,66.9,66.9&#10;&#9;&#9;&#9;&#9;c31.4,0,58.4-21.8,65.2-52.2c4.7-0.6,8.3-4.7,8.3-9.5V441.1C918.8,436.2,915.2,432.2,910.5,431.5z M845.2,607.8&#10;&#9;&#9;&#9;&#9;c-33.2,0-60.1-27-60.1-60.1V446.2c0-33.2,27-60.1,60.1-60.1c27.7,0,51.6,18.9,58.3,45.4h-13.2c-6.3-19.4-24.6-32.7-45.2-32.7&#10;&#9;&#9;&#9;&#9;l-0.5,0c-25.9,0.3-47,21.8-47,48.1v0.4c0,1.6,1.2,3,2.8,3.3c3.3,0.6,5.6,3.4,5.6,6.7v79.4c0,3.3-2.4,6.1-5.6,6.7&#10;&#9;&#9;&#9;&#9;c-1.6,0.3-2.8,1.7-2.8,3.3v1c0,12.7,4.9,24.6,13.9,33.6c9,9,20.9,13.9,33.6,13.9l0.5,0c20.2-0.2,38.1-13.5,44.6-32.7h13.3&#10;&#9;&#9;&#9;&#9;C896.9,588.9,873,607.8,845.2,607.8z M883.5,561.3c-5.8,16-20.9,27-37.9,27.2l-0.4,0c-10.9,0-21.1-4.2-28.8-12&#10;&#9;&#9;&#9;&#9;c-7.3-7.3-11.6-17-11.9-27.3c5-2.1,8.4-7,8.4-12.5v-79.4c0-5.6-3.4-10.5-8.3-12.5c1.1-21.6,18.8-39,40.3-39.3l0.4,0&#10;&#9;&#9;&#9;&#9;c17.3,0,32.7,11,38.4,27.1c-3.1,1.6-5.2,4.8-5.2,8.6v111.7C878.5,556.4,880.5,559.6,883.5,561.3z M912.1,552.8&#10;&#9;&#9;&#9;&#9;c0,1.6-1.3,2.9-2.9,2.9h-1.4h-19.6l0,0l-0.1,0c-1.6,0-2.8-1.3-2.8-2.9V441.1c0-1.6,1.3-2.9,2.8-2.9c0,0,0.1,0,0.2,0h19.6h0h1.4&#10;&#9;&#9;&#9;&#9;c1.6,0,2.9,1.3,2.9,2.9V552.8z" style="fill: rgb(204, 204, 204);" transform="matrix(1, 0, 0, 1, 0, -5.684341886080802e-14)"/><path d="M 904.399976 533.700012 A 5.8 5.8 0 0 1 898.599976 539.500012 A 5.8 5.8 0 0 1 892.799975 533.700012 A 5.8 5.8 0 0 1 898.599976 527.900012 A 5.8 5.8 0 0 1 904.399976 533.700012 Z" class="st1" style="fill: rgb(204, 204, 204);" transform="matrix(1, 0, 0, 1, 0, -5.684341886080802e-14)"/><path d="M 904.399976 460.100006 A 5.8 5.8 0 0 1 898.599976 465.900006 A 5.8 5.8 0 0 1 892.799975 460.100006 A 5.8 5.8 0 0 1 898.599976 454.300006 A 5.8 5.8 0 0 1 904.399976 460.100006 Z" class="st1" style="fill: rgb(204, 204, 204);" transform="matrix(1, 0, 0, 1, 0, -5.684341886080802e-14)"/></g><path class="st1" d="M798.6,521.6c0-1.9-1.5-3.4-3.4-3.4c0,0,0,0,0,0c-1.9,0-3.4,1.5-3.4,3.4c0,4,0,8.1,0,12.1&#10;&#9;&#9;&#9;&#9;c0,1.9,1.5,3.4,3.4,3.4c0,0,0,0,0,0c1.9,0,3.4-1.5,3.4-3.4C798.6,529.7,798.6,525.7,798.6,521.6z" style="fill: rgb(204, 204, 204);" transform="matrix(1, 0, 0, 1, 0, -5.684341886080802e-14)"/><path class="st1" d="M795.2,512.9L795.2,512.9c1.9,0,3.4-1.5,3.4-3.4c0-9.3,0-18.6,0-27.9c0-1.9-1.5-3.4-3.4-3.4c0,0,0,0,0,0&#10;&#9;&#9;&#9;&#9;c-1.9,0-3.4,1.5-3.4,3.4c0,9.3,0,18.6,0,27.9C791.9,511.4,793.4,512.9,795.2,512.9z" style="fill: rgb(204, 204, 204);" transform="matrix(1, 0, 0, 1, 0, -5.684341886080802e-14)"/><path class="st1" d="M795.2,473.1c1.9,0,3.4-1.5,3.4-3.4v-9.7c0-1.9-1.5-3.4-3.4-3.4c-1.9,0-3.4,1.5-3.4,3.4v9.7&#10;&#9;&#9;&#9;&#9;C791.8,471.6,793.3,473.1,795.2,473.1z" style="fill: rgb(204, 204, 204);" transform="matrix(1, 0, 0, 1, 0, -5.684341886080802e-14)"/></g></g></svg>