<svg width="145" height="28" viewBox="0 0 145 28" fill="none" xmlns="http://www.w3.org/2000/svg">
<path d="M10.322 27.85C8.37267 27.85 6.616 27.4533 5.052 26.66C3.51067 25.844 2.28667 24.5973 1.38 22.92C0.473333 21.2427 0.02 19.1233 0.02 16.562C0.02 15.3153 0.235333 14.0347 0.666 12.72C1.09667 11.4053 1.72 10.136 2.536 8.912C3.37467 7.66533 4.406 6.55467 5.63 5.58C6.87667 4.58267 8.316 3.80067 9.948 3.234C11.58 2.64467 13.3933 2.35 15.388 2.35C16.612 2.35 17.7113 2.52 18.686 2.86C19.6833 3.2 20.4653 3.71 21.032 4.39C21.5987 5.04733 21.882 5.87467 21.882 6.872C21.882 7.84667 21.6553 8.66267 21.202 9.32C20.7713 9.97733 20.1933 10.476 19.468 10.816C18.7653 11.1333 17.9947 11.292 17.156 11.292C16.1587 11.292 15.184 11.0427 14.232 10.544C13.28 10.0453 12.5093 9.30867 11.92 8.334C11.1267 8.71933 10.3787 9.37667 9.676 10.306C8.996 11.2127 8.452 12.278 8.044 13.502C7.636 14.726 7.432 15.9953 7.432 17.31C7.432 18.2393 7.54533 19.112 7.772 19.928C8.02133 20.7213 8.39533 21.3673 8.894 21.866C9.39267 22.3647 10.0273 22.614 10.798 22.614C11.4327 22.614 12.0447 22.376 12.634 21.9C13.2233 21.4013 13.7107 20.744 14.096 19.928C14.4813 19.112 14.674 18.194 14.674 17.174C16.0567 17.174 17.2127 17.242 18.142 17.378C19.094 17.4913 19.8193 17.752 20.318 18.16C20.8167 18.568 21.066 19.2027 21.066 20.064C21.066 20.9253 20.8167 21.8093 20.318 22.716C19.8193 23.6227 19.094 24.4727 18.142 25.266C17.2127 26.0367 16.0793 26.66 14.742 27.136C13.4273 27.612 11.954 27.85 10.322 27.85ZM26.697 27.884C25.1783 27.884 24.1017 27.4533 23.467 26.592C22.855 25.708 22.549 24.382 22.549 22.614C22.549 21.4807 22.7303 19.7807 23.093 17.514C23.4783 15.2247 24.011 12.1987 24.691 8.436L22.889 4.798C23.9543 4.118 25.0877 3.54 26.289 3.064C27.4903 2.56533 28.6917 2.316 29.893 2.316C30.9583 2.316 31.661 2.63333 32.001 3.268C32.341 3.90267 32.511 4.65067 32.511 5.512C32.511 5.87467 32.443 6.464 32.307 7.28C32.1937 8.07333 32.035 9.014 31.831 10.102C31.627 11.1673 31.4117 12.2893 31.185 13.468C30.981 14.6467 30.777 15.814 30.573 16.97C30.369 18.1033 30.199 19.146 30.063 20.098C29.9497 21.0273 29.893 21.7867 29.893 22.376H33.565C35.2877 22.1267 37.0217 21.6847 38.767 21.05C38.8577 21.2993 38.9143 21.56 38.937 21.832C38.9597 22.104 38.971 22.3987 38.971 22.716C38.971 23.5093 38.8123 24.3027 38.495 25.096C38.1777 25.8893 37.6903 26.5467 37.033 27.068C36.3757 27.5893 35.5483 27.85 34.551 27.85C33.5763 27.85 32.7263 27.7593 32.001 27.578C31.2757 27.4193 30.5163 27.2607 29.723 27.102C29.2243 27.374 28.7257 27.5667 28.227 27.68C27.7283 27.816 27.2183 27.884 26.697 27.884ZM43.8271 27.884C42.3085 27.884 41.2318 27.4533 40.5971 26.592C39.9851 25.708 39.6791 24.382 39.6791 22.614C39.6791 21.4807 39.8605 19.7807 40.2231 17.514C40.6085 15.2247 41.1411 12.1987 41.8211 8.436L40.0191 4.798C41.0845 4.118 42.2178 3.54 43.4191 3.064C44.6205 2.56533 45.8218 2.316 47.0231 2.316C48.0885 2.316 48.7911 2.63333 49.1311 3.268C49.4711 3.90267 49.6411 4.65067 49.6411 5.512C49.6411 5.87467 49.5731 6.464 49.4371 7.28C49.3238 8.07333 49.1651 9.00267 48.9611 10.068C48.7571 11.1107 48.5418 12.21 48.3151 13.366C48.1111 14.4993 47.9071 15.61 47.7031 16.698C47.4991 17.7633 47.3291 18.7153 47.1931 19.554C47.0798 20.37 47.0231 20.9933 47.0231 21.424C47.0231 22.58 47.1025 23.5547 47.2611 24.348C47.4425 25.1413 47.7031 25.81 48.0431 26.354C46.6831 27.374 45.2778 27.884 43.8271 27.884ZM53.3368 11.836C52.5661 11.836 52.0334 11.6773 51.7388 11.36C51.4668 11.0427 51.3308 10.6347 51.3308 10.136C51.3308 9.41067 51.4781 8.64 51.7728 7.824C52.0674 7.008 52.3621 6.16933 52.6568 5.308C52.9514 4.424 53.0988 3.54 53.0988 2.656C53.0988 2.13467 53.0194 1.64733 52.8608 1.194C53.3821 0.944665 53.9148 0.763332 54.4588 0.649999C55.0254 0.536666 55.5354 0.479999 55.9888 0.479999C56.7594 0.479999 57.2808 0.638666 57.5528 0.955999C57.8474 1.27333 57.9948 1.68133 57.9948 2.18C57.9948 2.928 57.8474 3.71 57.5528 4.526C57.2581 5.342 56.9634 6.18067 56.6688 7.042C56.3741 7.90333 56.2268 8.776 56.2268 9.66C56.2268 10.1813 56.3061 10.6687 56.4648 11.122C55.9661 11.3487 55.4334 11.53 54.8668 11.666C54.3001 11.7793 53.7901 11.836 53.3368 11.836ZM63.1673 27.884C61.6486 27.884 60.572 27.4533 59.9373 26.592C59.3253 25.708 59.0193 24.382 59.0193 22.614C59.0193 21.4807 59.2006 19.7807 59.5633 17.514C59.9486 15.2247 60.4813 12.1987 61.1613 8.436L59.3593 4.798C60.4246 4.118 61.558 3.54 62.7593 3.064C63.9606 2.56533 65.162 2.316 66.3633 2.316C67.4513 2.316 68.4033 2.486 69.2193 2.826C70.058 3.14333 70.7833 3.76667 71.3953 4.696C72.0073 5.60267 72.5173 6.94 72.9253 8.708C73.356 10.4533 73.7073 12.754 73.9793 15.61H74.3873C74.9313 14.046 75.6113 12.482 76.4273 10.918C77.2433 9.354 78.218 7.926 79.3513 6.634C80.4846 5.342 81.7993 4.31067 83.2953 3.54C84.814 2.74667 86.5366 2.35 88.4633 2.35C89.5286 2.35 90.2313 2.66733 90.5713 3.302C90.9113 3.914 91.0813 4.65067 91.0813 5.512C91.0813 5.87467 91.0133 6.464 90.8773 7.28C90.764 8.07333 90.6053 9.00267 90.4013 10.068C90.1973 11.1107 89.982 12.21 89.7553 13.366C89.5513 14.4993 89.3473 15.61 89.1433 16.698C88.9393 17.7633 88.7693 18.7153 88.6333 19.554C88.52 20.37 88.4633 20.9933 88.4633 21.424C88.4633 22.58 88.5426 23.5547 88.7013 24.348C88.8826 25.1413 89.1433 25.81 89.4833 26.354C88.1233 27.374 86.718 27.884 85.2673 27.884C83.7486 27.884 82.672 27.4533 82.0373 26.592C81.4253 25.708 81.1193 24.382 81.1193 22.614C81.1193 21.6393 81.2553 20.2453 81.5273 18.432C81.822 16.6187 82.2186 14.284 82.7173 11.428H82.1733C81.1986 12.72 80.3486 14.1707 79.6233 15.78C78.898 17.3667 78.32 18.9533 77.8893 20.54C77.4813 22.104 77.2093 23.498 77.0733 24.722C76.5066 25.2433 75.8833 25.64 75.2033 25.912C74.546 26.1613 73.8886 26.286 73.2313 26.286C72.6873 26.286 72.1773 26.082 71.7013 25.674C71.2253 25.2433 70.7833 24.4953 70.3753 23.43C69.9673 22.3647 69.6046 20.8687 69.2873 18.942C68.9926 16.9927 68.7546 14.488 68.5733 11.428H68.0293C67.7346 12.72 67.4626 14.046 67.2133 15.406C66.964 16.7433 66.76 17.956 66.6013 19.044C66.4426 20.132 66.3633 20.9253 66.3633 21.424C66.3633 22.58 66.4426 23.5547 66.6013 24.348C66.7826 25.1413 67.0433 25.81 67.3833 26.354C66.0233 27.374 64.618 27.884 63.1673 27.884ZM103.122 27.85C100.674 27.85 98.5658 27.374 96.7978 26.422C95.0525 25.47 93.7038 24.144 92.7518 22.444C91.8225 20.744 91.3578 18.7947 91.3578 16.596C91.3578 13.74 91.8905 11.2467 92.9558 9.116C94.0438 6.98533 95.5851 5.33067 97.5798 4.152C99.5971 2.95067 102.011 2.35 104.822 2.35C106.182 2.35 107.145 2.63333 107.712 3.2C108.278 3.744 108.562 4.54867 108.562 5.614C108.562 5.77267 108.55 5.92 108.528 6.056C108.528 6.192 108.516 6.35067 108.494 6.532C109.355 5.852 110.284 5.512 111.282 5.512C112.12 5.512 112.925 5.77267 113.696 6.294C114.466 6.79267 115.09 7.57467 115.566 8.64C116.064 9.70533 116.314 11.054 116.314 12.686C116.314 15.1113 115.94 17.2647 115.192 19.146C114.466 21.0273 113.469 22.614 112.2 23.906C110.953 25.198 109.548 26.184 107.984 26.864C106.42 27.5213 104.799 27.85 103.122 27.85ZM103.394 22.886C104.504 22.886 105.513 22.4553 106.42 21.594C107.349 20.71 107.984 19.5767 108.324 18.194C107.53 17.2193 106.964 16.2447 106.624 15.27C106.306 14.2727 106.148 13.2867 106.148 12.312C106.148 11.292 106.272 10.3853 106.522 9.592C106.771 8.79867 107.1 8.11867 107.508 7.552C107.1 7.484 106.692 7.45 106.284 7.45C105.014 7.45 103.904 7.722 102.952 8.266C102.022 8.81 101.24 9.53533 100.606 10.442C99.9938 11.326 99.5291 12.3007 99.2118 13.366C98.9171 14.4087 98.7698 15.44 98.7698 16.46C98.7698 17.616 98.9398 18.6813 99.2798 19.656C99.6425 20.6307 100.164 21.4127 100.844 22.002C101.546 22.5913 102.396 22.886 103.394 22.886ZM121.156 27.884C119.637 27.884 118.561 27.4533 117.926 26.592C117.314 25.708 117.008 24.382 117.008 22.614C117.008 21.4807 117.189 19.7807 117.552 17.514C117.937 15.2247 118.47 12.1987 119.15 8.436L117.348 4.798C118.413 4.118 119.547 3.54 120.748 3.064C121.949 2.588 123.151 2.35 124.352 2.35C125.984 2.35 127.265 2.59933 128.194 3.098C129.123 3.59667 129.815 4.29933 130.268 5.206C130.744 6.11267 131.095 7.178 131.322 8.402C131.571 9.626 131.798 10.9633 132.002 12.414C132.206 13.842 132.512 15.338 132.92 16.902C133.328 18.466 133.951 20.0527 134.79 21.662L135.606 21.118C134.971 19.8713 134.439 18.4207 134.008 16.766C133.6 15.1113 133.396 13.4567 133.396 11.802C133.396 10.1473 133.668 8.606 134.212 7.178C134.779 5.75 135.617 4.594 136.728 3.71C137.839 2.80333 139.221 2.35 140.876 2.35C141.397 2.35 141.941 2.40667 142.508 2.52C143.097 2.61067 143.607 2.76933 144.038 2.996C143.834 4.22 143.596 5.56867 143.324 7.042C143.052 8.49267 142.769 9.966 142.474 11.462C142.202 12.958 141.941 14.3747 141.692 15.712C141.465 17.0493 141.273 18.2167 141.114 19.214C140.978 20.1887 140.91 20.88 140.91 21.288C140.91 22.4667 141.001 23.4413 141.182 24.212C141.363 24.96 141.635 25.5947 141.998 26.116C141.341 26.5467 140.729 26.8867 140.162 27.136C139.595 27.3853 138.983 27.5667 138.326 27.68C137.691 27.7933 136.943 27.85 136.082 27.85C134.314 27.85 132.829 27.4307 131.628 26.592C130.449 25.7533 129.497 24.5973 128.772 23.124C128.047 21.6507 127.503 19.962 127.14 18.058C126.8 16.154 126.573 14.1367 126.46 12.006H125.916C125.644 13.2753 125.383 14.5447 125.134 15.814C124.907 17.0833 124.715 18.2167 124.556 19.214C124.42 20.2113 124.352 20.948 124.352 21.424C124.352 22.58 124.431 23.5547 124.59 24.348C124.771 25.1413 125.032 25.81 125.372 26.354C124.012 27.374 122.607 27.884 121.156 27.884Z" fill="#FF7F27"/>
</svg>
